HIERARCHY
ROOT Hips
{
  OFFSET 0 0 0
  CHANNELS 6 Xposition Yposition Zposition Zrotation Yrotation Xrotation
  JOINT LeftThigh
  {
    OFFSET 8.509551 0 -5.988202
    CHANNELS 3 Zrotation Yrotation Xrotation
    JOINT LeftLeg
    {
      OFFSET 0 0 -42.862921
      CHANNELS 3 Zrotation Yrotation Xrotation
      JOINT LeftFoot
      {
        OFFSET 0 0 -39.825843
        CHANNELS 3 Zrotation Yrotation Xrotation
        End Site
        {
          OFFSET 0 -13.487303 -5.068483
        }
      }
    }
  }
  JOINT RightThigh
  {
    OFFSET -8.509551 0 -5.988202
    CHANNELS 3 Zrotation Yrotation Xrotation
    JOINT RightLeg
    {
      OFFSET 0 0 -42.862921
      CHANNELS 3 Zrotation Yrotation Xrotation
      JOINT RightFoot
      {
        OFFSET 0 0 -39.825843
        CHANNELS 3 Zrotation Yrotation Xrotation
        End Site
        {
          OFFSET 0 -13.487303 -5.068483
        }
      }
    }
  }
  JOINT SpineLow
  {
    OFFSET 0 0 4.775281
    CHANNELS 3 Zrotation Yrotation Xrotation
    JOINT SpineMid
    {
      OFFSET 0 0 13.052753
      CHANNELS 3 Zrotation Yrotation Xrotation
      JOINT Chest
      {
        OFFSET 0 0 13.052753
        CHANNELS 3 Zrotation Yrotation Xrotation
        JOINT LeftShoulder
        {
          OFFSET 7.640449 1.432584 9.550562
          CHANNELS 3 Zrotation Yrotation Xrotation
          JOINT LeftArm
          {
            OFFSET 9.264045 0 4.297753
            CHANNELS 3 Zrotation Yrotation Xrotation
            JOINT LeftForearm
            {
              OFFSET 0 0 26.078764
              CHANNELS 3 Zrotation Yrotation Xrotation
              JOINT LeftHand
              {
                OFFSET 0 0 25.497135
                CHANNELS 3 Zrotation Yrotation Xrotation
              }
            }
          }
        }
        JOINT RightShoulder
        {
          OFFSET -7.640449 1.432584 9.550562
          CHANNELS 3 Zrotation Yrotation Xrotation
          JOINT RightArm
          {
            OFFSET -9.264045 0 4.297753
            CHANNELS 3 Zrotation Yrotation Xrotation
            JOINT RightForearm
            {
              OFFSET 0 0 -26.078764
              CHANNELS 3 Zrotation Yrotation Xrotation
              JOINT RightHand
              {
                OFFSET 0 0 -25.497135
                CHANNELS 3 Zrotation Yrotation Xrotation
              }
            }
          }
        }
        JOINT Neck
        {
          OFFSET 0 0 15.280899
          CHANNELS 3 Zrotation Yrotation Xrotation
          JOINT Head
          {
            OFFSET 0 0 11.460674
            CHANNELS 3 Zrotation Yrotation Xrotation
            End Site
            {
              OFFSET 0 0 7.325843
            }
          }
        }
      }
    }
  }
}
MOTION
Frames: 15
Frame Time: 0.01
-0.735234  91.589165  -12.110553  3.759988  76.659593  -87.660953  18.2324  -15.260042  7.670589  -11.743421  -1.085967  -2.600609  9.716681  7.665372  5.731267  -12.701603  15.837121  0.528626  12.659453  -0.394369  -0.449025  -1.43  -10.848467  0.001904  0.501092  -0.038571  -0.067971  1.369792  -0.104015  -0.186584  1.369793  -0.104015  -0.186583  -1.480098  8.109012  11.41271  144.806031  38.377473  179.944138  -25.486651  7.022396  11.717291  91.283643  -22.391754  -25.289884  -2.798709  -7.353341  7.466688  60.846858  39.590194  14.650397  1.147719  14.301182  -33.757117  73.658577  30.342145  -1.282502  6.348504  -7.51672  1.832896  4.777227  -5.619312  1.451364  
-0.749192257590198  91.595055  -12.1094307623433  3.56972  76.609757  -87.827373  18.343745  -15.304783  7.625055  -11.783219  -1.088696  -2.625043  9.707067  7.671491  5.755045  -12.622316  15.787787  0.514663  12.615474  -0.405549  -0.454341  -1.583196  -10.811618  -0.022831  0.505262  -0.04119  -0.067458  1.381199  -0.111174  -0.185242  1.381199  -0.111174  -0.185242  -1.475842  8.135638  11.392065  144.959505  38.42674  -179.998652  -25.447086  7.027416  11.703919  91.292533  -22.396104  -25.222847  -2.74511  -7.357282  7.458098  60.966508  39.59148  14.683902  1.000637  14.308139  -33.728651  73.659345  30.369415  -1.305418  6.349957  -7.522357  1.844717  4.778468  -5.623416  1.460292  
-0.785950220972178  91.591942  -12.0795958082414  3.562065  76.651616  -87.804256  18.369518  -15.321905  7.575331  -11.814303  -1.076164  -2.62396  9.677086  7.676815  5.750825  -12.532958  15.747621  0.505954  12.517299  -0.410377  -0.445744  -1.628016  -10.766795  -0.070244  0.502215  -0.037754  -0.069158  1.372861  -0.101756  -0.189813  1.372861  -0.101756  -0.189813  -1.47631  8.134565  11.363123  144.965689  38.464404  -179.98567  -25.477792  7.032417  11.673095  91.27574  -22.381634  -25.180574  -2.730993  -7.365816  7.449573  60.965067  39.614694  14.669248  0.945349  14.324862  -33.760225  73.665679  30.361048  -1.320157  6.331071  -7.52583  1.851805  4.764416  -5.626  1.465402  
-0.821347285802429  91.595619  -12.0866135585976  3.423183  76.666072  -87.90394  18.382699  -15.354147  7.487361  -11.802903  -1.072252  -2.595787  9.65073  7.690476  5.757225  -12.487527  15.7199  0.465092  12.436909  -0.45658  -0.44439  -1.777641  -10.728044  -0.067147  0.497845  -0.039323  -0.07308  1.360928  -0.105975  -0.200557  1.360927  -0.105975  -0.200557  -1.450233  8.146495  11.341233  145.069515  38.499794  -179.948603  -25.526309  7.02341  11.691352  91.371197  -22.355395  -25.070527  -2.698869  -7.367466  7.448607  61.025993  39.635197  14.71558  0.860977  14.337689  -33.796467  73.680365  30.379555  -1.338274  6.335126  -7.530157  1.86978  4.767683  -5.629049  1.478958  
-0.858006597201112  91.591148  -12.0623812840767  3.406409  76.725412  -87.879681  18.399806  -15.37753  7.416331  -11.843178  -1.057987  -2.578495  9.627614  7.703323  5.738173  -12.402603  15.679746  0.43631  12.324267  -0.469538  -0.408135  -1.817302  -10.682802  -0.125615  0.492931  -0.037329  -0.077918  1.347498  -0.100441  -0.213731  1.347498  -0.100441  -0.213732  -1.458002  8.143041  11.324924  145.03977  38.532033  -179.948617  -25.576115  7.032119  11.669599  91.362406  -22.346528  -25.04879  -2.69763  -7.371449  7.449791  60.981193  39.671308  14.698543  0.852055  14.367253  -33.860806  73.705368  30.359293  -1.365269  6.318105  -7.527271  1.879226  4.755049  -5.626836  1.485793  
-0.88424237068285  91.593185  -12.0491472498289  3.218094  76.728268  -88.026398  18.520379  -15.437085  7.300418  -11.91972  -1.056076  -2.53484  9.600797  7.73175  5.715529  -12.397722  15.641078  0.40418  12.391403  -0.531291  -0.434857  -2.016186  -10.626002  -0.12576  0.490757  -0.042467  -0.085366  1.341584  -0.114341  -0.234192  1.341584  -0.114341  -0.234192  -1.446486  8.155995  11.333966  145.103097  38.560364  -179.90906  -25.640959  7.018717  11.69785  91.451677  -22.329643  -24.979718  -2.688947  -7.355442  7.472003  60.99448  39.711514  14.736777  0.811427  14.383066  -33.928425  73.717669  30.383523  -1.40922  6.317413  -7.519687  1.907119  4.754867  -5.620863  1.5066  
-0.91164446878377  91.587563  -12.0008178596402  3.183663  76.784126  -88.027231  18.549494  -15.472063  7.224606  -11.9608  -1.0391  -2.491789  9.56999  7.758141  5.668965  -12.371393  15.570764  0.374461  12.369449  -0.514185  -0.38086  -2.082677  -10.564784  -0.220593  0.485113  -0.043052  -0.090337  1.326167  -0.11586  -0.24778  1.326167  -0.11586  -0.24778  -1.460967  8.156334  11.339827  145.047461  38.597065  -179.915414  -25.710658  7.032632  11.688111  91.437006  -22.316821  -24.983731  -2.673484  -7.354795  7.483531  60.926689  39.754306  14.730307  0.814418  14.41945  -34.020476  73.728355  30.363507  -1.440764  6.308528  -7.507892  1.919081  4.748345  -5.611919  1.515333  
-0.919392819633296  91.58976  -11.9614021246895  2.943607  76.74653  -88.23784  18.678341  -15.555093  7.106908  -12.005782  -1.019682  -2.426038  9.540158  7.795322  5.633742  -12.365805  15.492704  0.355736  12.484465  -0.538982  -0.384474  -2.26563  -10.496055  -0.267676  0.482566  -0.050812  -0.093598  1.319242  -0.137015  -0.256844  1.319242  -0.137015  -0.256844  -1.464825  8.180021  11.340081  145.098201  38.629596  -179.891103  -25.833854  7.007514  11.723149  91.553616  -22.315458  -24.867531  -2.629827  -7.332592  7.493908  60.893932  39.818815  14.794424  0.787229  14.424969  -34.152135  73.745116  30.399568  -1.491157  6.331114  -7.491512  1.937617  4.765468  -5.599376  1.529335  
-0.943311152406904  91.575882  -11.8972207272305  2.903676  76.782485  -88.25402  18.691738  -15.620982  7.040708  -12.029921  -0.978884  -2.365239  9.517854  7.840534  5.56967  -12.378974  15.402366  0.298632  12.5212  -0.508221  -0.271053  -2.327548  -10.405032  -0.410891  0.476402  -0.054618  -0.096165  1.302415  -0.147393  -0.263921  1.302415  -0.147393  -0.263921  -1.463296  8.190361  11.344557  145.01676  38.661792  -179.913151  -25.911133  7.021288  11.73338  91.545455  -22.300997  -24.84034  -2.573111  -7.318078  7.502512  60.829628  39.862236  14.81332  0.765378  14.4613  -34.262439  73.758322  30.392084  -1.499518  6.336975  -7.46695  1.944813  4.769912  -5.580861  1.534551  
-0.941610190094698  91.572609  -11.8597211656726  2.636297  76.714156  -88.481689  18.782978  -15.722125  6.899527  -12.043732  -0.946794  -2.266245  9.521776  7.904244  5.527799  -12.369904  15.302417  0.216829  12.593115  -0.520955  -0.165334  -2.485487  -10.303338  -0.524365  0.472005  -0.062533  -0.100177  1.290437  -0.168964  -0.275034  1.290437  -0.168964  -0.275034  -1.464502  8.222701  11.342589  145.078171  38.697109  -179.90068  -26.019565  6.990595  11.795423  91.65281  -22.273882  -24.706852  -2.467361  -7.305961  7.515561  60.782602  39.940305  14.917726  0.703002  14.468878  -34.419297  73.748827  30.465328  -1.561968  6.379939  -7.449566  1.95736  4.802219  -5.567564  1.544306  
-0.951983852896807  91.552322  -11.8190743104482  2.590155  76.707428  -88.500818  18.787623  -15.800322  6.833176  -12.049971  -0.899933  -2.180098  9.528557  7.980959  5.436057  -12.405935  15.224353  0.081651  12.616742  -0.504435  0.062233  -2.459188  -10.207557  -0.753353  0.473209  -0.066143  -0.103087  1.29375  -0.178771  -0.283061  1.29375  -0.178771  -0.283061  -1.471144  8.232905  11.338534  144.989439  38.729547  -179.940692  -26.078123  7.00637  11.819096  91.646307  -22.252511  -24.651877  -2.39348  -7.306619  7.53671  60.750184  39.994048  14.98502  0.613164  14.505557  -34.559075  73.727057  30.457647  -1.590014  6.384326  -7.426473  1.964547  4.80556  -5.550154  1.549511  
-0.932900289039229  91.538704  -11.8217754575026  2.4189  76.609613  -88.659471  18.858908  -15.898189  6.708821  -12.011694  -0.874252  -2.026474  9.519438  8.100725  5.341217  -12.471304  15.163523  -0.073007  12.608041  -0.503471  0.304093  -2.363943  -10.145304  -0.978441  0.465153  -0.06578  -0.104057  1.271731  -0.177794  -0.285684  1.271731  -0.177794  -0.285684  -1.425359  8.246129  11.339203  145.003751  38.769476  -179.93739  -26.177642  6.975239  11.856648  91.735294  -22.224168  -24.546852  -2.23812  -7.330056  7.566632  60.724912  40.07395  15.163104  0.490001  14.511308  -34.789971  73.695819  30.542413  -1.678605  6.459485  -7.427782  1.978674  4.862026  -5.550764  1.561029  
-0.927565171945441  91.507614  -11.8005858149221  2.421261  76.570872  -88.67578  18.819595  -15.99662  6.688905  -11.981751  -0.82459  -1.885972  9.546075  8.239856  5.175518  -12.584926  15.09983  -0.262516  12.552309  -0.466058  0.684297  -2.119668  -10.055736  -1.3026  0.472163  -0.067612  -0.097478  1.290883  -0.182899  -0.267755  1.290883  -0.182899  -0.267755  -1.43603  8.251948  11.314784  144.916716  38.802164  -179.977035  -26.212064  6.993065  11.882553  91.739057  -22.202032  -24.506142  -2.159495  -7.33901  7.57121  60.721373  40.127291  15.28307  0.361223  14.539276  -34.981588  73.66703  30.53951  -1.706218  6.466726  -7.404444  1.975776  4.86738  -5.533266  1.55871  
-0.907058125148811  91.485947  -11.842760828083  2.145777  76.456406  -88.954399  18.934167  -16.17961  6.548513  -12.035516  -0.760981  -1.701671  9.593757  8.409485  5.018749  -12.861997  15.031444  -0.517911  12.560509  -0.465542  1.039954  -1.776559  -9.997839  -1.586857  0.461068  -0.069681  -0.094285  1.260557  -0.18866  -0.259036  1.260557  -0.18866  -0.259036  -1.403098  8.273324  11.302163  144.941661  38.846841  -179.967884  -26.315275  6.944634  11.911724  91.821123  -22.150754  -24.408436  -1.984194  -7.373073  7.583157  60.691409  40.212259  15.522542  0.235918  14.535611  -35.314623  73.642502  30.618813  -1.801371  6.565931  -7.409188  1.984603  4.941796  -5.536433  1.566585  
-0.886754204509864  91.446274  -11.8216473462451  1.973016  76.399789  -89.088011  18.907803  -16.344741  6.435207  -12.049248  -0.685233  -1.490211  9.67509  8.609361  4.780378  -13.122963  14.87996  -0.860044  12.519046  -0.386118  1.585542  -1.375415  -9.908435  -1.972745  0.469243  -0.079755  -0.098221  1.282953  -0.216088  -0.270014  1.282953  -0.216088  -0.270014  -1.401979  8.295252  11.278881  144.840366  38.884048  179.977089  -26.338765  6.964702  11.927555  91.807328  -22.132091  -24.365683  -1.892232  -7.375825  7.603172  60.678485  40.274679  15.679337  0.107032  14.562315  -35.576994  73.650607  30.603218  -1.839038  6.58364  -7.378238  1.992676  4.955113  -5.513077  1.572528  
